<svg xmlns="http://www.w3.org/2000/svg" xmlns:xlink="http://www.w3.org/1999/xlink" version="1.1" x="0px" y="0px" viewBox="0 0 100 100" enable-background="new 0 0 100 100" xml:space="preserve"><path fill="#FFF" d="M74.9,53C92.2,37.3,94.3,16,92.1,9.3c0,0,0,0,0,0c0,0,0-0.1,0-0.1c0,0,0-0.1-0.1-0.1C92,9,92,8.9,92,8.9  c0-0.1-0.1-0.1-0.1-0.2c0-0.1-0.1-0.1-0.1-0.2c0,0-0.1-0.1-0.1-0.1c0,0-0.1-0.1-0.2-0.1c0,0-0.1-0.1-0.1-0.1c-0.1,0-0.1-0.1-0.2-0.1  C91.1,8,91,8,91,8c0,0-0.1,0-0.1-0.1c0,0-0.1,0-0.1,0c0,0,0,0,0,0c-6.7-2.1-28,0-43.7,17.2c-3.2-4.7-11.1-14.5-21.1-13.8  c-0.6,0-1.1,0.3-1.4,0.8c-0.4,0.5-8.2,10.8-0.7,25.6C20.1,38.9,13.1,42,7.7,48.1c-0.5,0.6-0.6,1.5-0.3,2.2c0.3,0.6,7.3,14.4,22,17.4  l-7.8,7.8c-0.8,0.8-0.8,2,0,2.8C22,78.8,22.5,79,23,79s1-0.2,1.4-0.6l7.8-7.8c3.1,14.7,16.8,21.7,17.4,22c0.3,0.1,0.6,0.2,0.9,0.2  c0.5,0,0.9-0.2,1.3-0.5c6.2-5.4,9.3-12.5,10.6-16.1c14.8,7.5,25.1-0.3,25.6-0.7c0.4-0.3,0.7-0.9,0.8-1.4  C89.4,64.1,79.6,56.2,74.9,53z M62.3,71.5c-0.5-0.3-1.2-0.4-1.8-0.1c-0.6,0.2-1,0.8-1.2,1.4c0,0.1-2.3,9-9,15.6  c-3.5-2.1-13.4-9.1-14.5-21.3l0.1-0.1l0.8-0.8l8.7-8.7c10.9,8.5,21.7,9.3,25.4,9.3c0.8,0,1.3,0,1.4,0c1.1-0.1,1.9-1.1,1.8-2.2  c-0.1-1.1-1.1-1.9-2.2-1.8c-0.1,0-11.7,0.9-23.6-8.1L61,41.8c1.4,0.4,2.8,0.5,4.3,0.5c5.7,0,11-2.3,11.3-2.5c1-0.5,1.5-1.6,1-2.6  c-0.5-1-1.6-1.5-2.6-1c-0.1,0-5.3,2.4-10.4,2.1l21-21c0.8-0.8,0.8-2,0-2.8c-0.8-0.8-2-0.8-2.8,0l-21,21c-0.2-5,2.1-10.3,2.1-10.4  c0.5-1,0-2.2-1-2.6c-1-0.5-2.2,0-2.6,1c-0.2,0.4-3.8,8.5-2,15.5L45.3,51.9c-8.9-11.8-8.1-23.4-8.1-23.6c0.1-1.1-0.7-2.1-1.8-2.2  c-1.1-0.1-2.1,0.7-2.2,1.8c0,0.6-1,13.6,9.2,26.8l-8.7,8.7L33,64.1l-0.1,0.1c-12.1-1.2-19.2-11.1-21.3-14.5c6.6-6.7,15.5-9,15.6-9  c0.6-0.2,1.1-0.6,1.4-1.2c0.2-0.6,0.2-1.3-0.1-1.8c-6.9-11.5-2.9-20-1.3-22.5c9.8,0.2,17.8,14,17.9,14.2c0.3,0.6,0.9,0.9,1.6,1  c0.7,0.1,1.3-0.2,1.7-0.7C62,13.1,81.6,10,88.6,11.4c1.4,7-1.6,26.5-18.3,40.3c-0.5,0.4-0.8,1.1-0.7,1.7c0.1,0.7,0.4,1.2,1,1.6  c0.1,0.1,14,8.1,14.2,17.9C82.3,74.3,73.7,78.4,62.3,71.5z"></path></svg>