<svg xmlns="http://www.w3.org/2000/svg" xmlns:xlink="http://www.w3.org/1999/xlink" version="1.1" x="0px" y="0px" viewBox="0 0 100 125" enable-background="new 0 0 100 100" xml:space="preserve" fill="#000" class="play"><g><path d="M37.441,32.41l-0.047-0.029c-0.113-0.07-0.219-0.134-0.319-0.19v36.458c0.111-0.062,0.229-0.131,0.356-0.206l0.029-0.018   l0.03-0.018l31.717-17.844c0.032-0.091,0.032-0.19,0-0.281L37.49,32.438L37.441,32.41z"/><path d="M50.153,10.463c-22.092,0-40,17.908-40,40c0,22.091,17.908,40,40,40s40-17.909,40-40   C90.153,28.371,72.245,10.463,50.153,10.463z M70.834,52.451L38.688,70.536c-1.325,0.796-2.294,1.129-2.953,1.129   c-0.758,0-1.103-0.441-1.103-1.129V30.309c0-0.624,0.427-1.048,1.232-1.048c0.681,0,1.632,0.304,2.824,1.048l32.146,18.086   C71.954,49.515,71.954,51.331,70.834,52.451z"/></g></svg>