<?xml version="1.0" standalone="no"?>
<!DOCTYPE svg PUBLIC "-//W3C//DTD SVG 20010904//EN"
 "http://www.w3.org/TR/2001/REC-SVG-20010904/DTD/svg10.dtd">
<svg version="1.0" xmlns="http://www.w3.org/2000/svg"
 width="910.000000pt" height="450.000000pt" viewBox="0 0 910.000000 450.000000"
 preserveAspectRatio="xMidYMid meet">
<metadata>
Created by potrace 1.13, written by Peter Selinger 2001-2015
</metadata>
<g transform="translate(0.000000,450.000000) scale(0.100000,-0.100000)"
fill="#000000" stroke="none">
<path d="M6021 4461 c-13 -13 -23 -16 -36 -9 -27 16 -67 -7 -63 -35 4 -27 42
-31 44 -4 1 12 1 13 -3 2 -7 -22 -33 -19 -33 4 0 17 18 31 40 31 16 0 40 -31
40 -53 0 -11 -9 -40 -21 -64 -12 -24 -22 -61 -23 -83 -1 -39 -9 -50 -21 -31
-3 5 -18 12 -34 16 -35 7 -58 31 -64 65 l-4 25 -1 -25 c-1 -14 2 -32 8 -40 6
-11 1 -21 -22 -40 -48 -41 -37 -110 18 -110 30 0 51 35 33 56 -13 16 -35 19
-43 5 -4 -5 2 -7 13 -4 10 3 22 0 25 -5 10 -16 -5 -42 -24 -42 -48 0 -54 76
-7 98 21 10 35 11 62 2 34 -11 55 -32 99 -101 l23 -35 -60 -11 c-39 -8 -78
-24 -112 -47 -59 -41 -118 -48 -153 -18 -32 26 -33 75 -3 92 29 15 54 2 48
-26 -2 -13 0 -21 4 -18 19 11 8 45 -17 56 -24 11 -29 9 -50 -15 -32 -37 -30
-53 10 -93 32 -32 33 -34 15 -50 -10 -9 -27 -14 -39 -11 -11 3 -18 1 -14 -4 9
-16 49 -10 61 10 7 12 26 20 51 22 l39 4 -13 -42 c-17 -58 -3 -102 46 -147 53
-47 104 -50 152 -7 27 24 33 36 33 71 0 34 -6 47 -28 66 -16 13 -41 24 -57 24
-15 0 -35 3 -44 6 -22 8 -20 41 2 47 16 4 16 5 -1 6 -22 1 -34 -26 -20 -48 8
-13 6 -22 -7 -39 -20 -25 -36 -28 -43 -9 -4 8 -6 7 -6 -3 0 -8 4 -22 9 -30 6
-10 10 -11 10 -2 0 6 5 12 10 12 6 0 10 -7 10 -15 0 -25 36 -37 55 -19 10 10
12 20 6 28 -11 13 4 56 19 56 20 0 70 -58 70 -80 0 -12 -13 -35 -29 -51 -43
-42 -83 -40 -132 10 -33 33 -39 45 -39 81 0 129 167 200 295 126 42 -25 47
-30 30 -37 -20 -7 -20 -8 0 -9 11 -2 23 -2 27 -1 4 0 15 -12 26 -27 35 -50 35
-51 0 -40 -18 6 -39 13 -46 14 -7 2 -17 14 -22 26 -5 13 -9 17 -9 11 -1 -7 -7
-13 -15 -13 -20 0 -31 -19 -18 -32 6 -6 12 -6 17 3 5 8 4 10 -3 5 -7 -4 -12
-2 -12 3 0 14 37 14 45 0 4 -5 0 -18 -9 -28 -23 -25 -20 -68 5 -82 17 -9 25
-8 37 4 18 19 9 47 -15 46 -17 -1 -17 -2 0 -6 18 -5 23 -28 8 -37 -19 -12 -41
7 -41 35 0 40 36 57 80 39 41 -17 58 -44 70 -112 21 -112 -21 -267 -95 -351
-52 -58 -116 -184 -136 -267 -21 -83 -16 -268 10 -364 12 -44 20 -80 19 -82
-2 -1 -37 20 -78 47 -41 27 -105 61 -143 77 -92 36 -171 107 -209 187 -23 50
-28 73 -28 135 1 114 38 179 122 215 126 52 241 -52 183 -164 -25 -50 -91 -57
-124 -15 -27 34 -27 64 1 99 21 27 21 27 1 16 -25 -13 -46 -70 -37 -97 19 -52
79 -77 133 -54 34 14 61 63 61 110 0 75 -54 129 -138 140 l-44 5 40 43 c26 28
47 42 65 42 25 0 57 -23 57 -40 0 -5 -7 -16 -16 -24 -8 -9 -11 -16 -5 -16 6 0
15 9 21 20 12 23 0 54 -26 64 -13 5 -14 9 -4 21 6 7 10 24 7 37 -4 20 -4 19
-6 -5 -1 -22 -9 -31 -36 -43 -45 -18 -45 -18 -45 14 -1 31 -35 108 -47 105 -4
-2 -16 0 -26 3 -52 17 -106 -32 -88 -80 8 -20 17 -26 40 -26 38 0 52 34 25 59
-17 15 -17 15 -5 -1 18 -25 6 -50 -21 -46 -30 4 -38 56 -12 75 28 20 53 15 85
-16 23 -24 29 -38 29 -73 0 -24 -5 -50 -10 -58 -8 -13 -10 -13 -10 1 0 9 -7
23 -17 30 -15 13 -15 12 -3 -7 23 -36 5 -69 -54 -103 -74 -41 -110 -93 -131
-186 l-7 -30 -34 37 c-39 43 -44 78 -14 108 11 11 16 20 11 20 -5 0 -14 -7
-21 -15 -12 -14 -15 -14 -30 0 -22 19 -49 19 -57 -1 -8 -21 13 -42 28 -27 8 8
7 13 -2 18 -8 5 -10 4 -5 -3 4 -7 2 -12 -3 -12 -6 0 -11 7 -11 15 0 18 34 20
48 3 5 -7 12 -28 14 -46 5 -33 4 -34 -26 -29 -17 2 -44 0 -60 -4 -21 -6 -36
-4 -52 6 -13 8 -25 11 -28 6 -3 -5 5 -12 18 -15 l24 -6 -18 -36 c-19 -37 -17
-57 8 -86 31 -37 87 -13 80 34 -2 17 -10 23 -31 24 -25 1 -25 1 -2 -3 32 -5
36 -48 5 -58 -56 -18 -82 54 -35 100 29 30 72 32 123 8 l37 -18 -29 -5 c-16
-3 -33 -12 -39 -21 -14 -22 -1 -51 20 -47 21 4 24 30 5 34 -7 1 -8 0 -2 -3 16
-7 12 -23 -6 -23 -10 0 -14 7 -12 23 2 16 11 23 31 25 37 4 55 -11 68 -62 22
-81 43 -132 72 -175 l29 -43 -28 6 c-16 4 -54 10 -84 15 -136 23 -305 134
-380 251 -59 91 -85 211 -69 311 13 80 38 128 94 177 82 72 186 91 265 49 131
-69 115 -287 -22 -287 -53 0 -85 18 -103 57 -22 45 -13 92 23 128 l27 28 -31
-16 c-78 -40 -67 -169 17 -213 39 -19 106 -15 145 11 31 20 63 88 64 134 1
135 -104 223 -250 208 l-59 -7 16 38 c30 72 85 104 123 70 12 -11 12 -10 1 5
-7 9 -21 17 -30 17 -14 0 -14 2 -1 10 27 17 95 11 124 -11 28 -22 36 -75 14
-97 -17 -17 -53 -15 -68 4 -11 12 -10 18 4 32 14 14 19 15 39 3 20 -13 21 -13
8 2 -30 37 -84 1 -62 -42 35 -65 127 -2 102 70 -10 28 3 42 32 35 6 -1 9 -1 6
1 -3 2 -4 14 -2 26 3 15 -2 28 -14 37 -15 12 -16 12 -5 0 36 -41 -10 -74 -63
-46 -17 9 -42 16 -57 16 -32 0 -32 0 -14 45 12 28 21 35 42 35 22 0 25 -3 21
-21 -4 -16 -3 -19 5 -11 6 6 8 18 5 26 -7 18 -52 22 -62 6 -4 -6 -13 -3 -23 7
-9 10 -14 14 -9 9 4 -6 7 -24 7 -41 0 -32 -19 -55 -71 -88 l-26 -16 -6 49 c-3
27 -22 79 -41 116 -38 70 -39 101 -8 137 21 24 66 22 86 -5 l17 -23 -11 22
c-23 49 -80 50 -114 2 -13 -19 -18 -20 -31 -9 -17 14 -21 50 -4 50 5 0 7 -5 3
-12 -5 -7 -3 -8 5 -3 9 5 9 11 3 17 -6 6 -15 7 -21 4 -18 -12 -12 -50 9 -64
11 -7 20 -23 20 -37 0 -28 -6 -30 -46 -14 -20 7 -42 7 -77 -2 -71 -17 -118 12
-102 62 8 23 45 25 45 3 0 -10 -5 -14 -16 -10 -8 3 -12 2 -9 -4 3 -6 13 -10
21 -10 25 0 13 44 -13 48 -29 4 -49 -32 -35 -63 11 -25 7 -35 -15 -35 -8 0
-11 5 -8 10 3 6 1 10 -4 10 -14 0 -14 -1 5 -38 17 -36 25 -41 17 -13 -6 24 11
35 44 26 23 -5 24 -7 9 -24 -41 -45 -17 -133 39 -147 34 -8 74 13 81 43 7 25
-19 73 -38 73 -7 0 -5 -6 4 -12 29 -22 27 -74 -2 -83 -28 -9 -42 2 -30 25 8
15 6 17 -8 14 -9 -3 -26 1 -36 9 -27 20 -14 62 27 88 62 39 140 10 184 -67 31
-53 30 -71 -1 -51 -20 14 -26 14 -42 2 -17 -12 -17 -13 7 -8 66 12 78 -84 23
-174 -17 -27 -34 -48 -39 -48 -6 -1 -21 -7 -34 -14 -19 -11 -26 -11 -38 1 -17
17 -7 48 16 49 10 0 12 2 3 6 -15 6 -42 -14 -42 -33 0 -20 31 -46 50 -41 11 3
3 -10 -19 -34 -21 -21 -46 -56 -56 -79 l-19 -42 -22 44 c-28 53 -30 99 -6 121
23 21 31 21 54 0 17 -15 18 -15 13 0 -9 22 -40 30 -65 17 -25 -13 -25 -3 -1
34 22 34 56 55 87 56 29 0 74 -37 75 -63 1 -18 2 -19 6 -4 6 25 -22 65 -52 73
-26 6 -33 28 -14 39 7 5 4 14 -7 26 -19 22 -39 25 -50 7 -4 -7 -3 -8 4 -4 7 4
12 3 12 -3 0 -5 -6 -12 -12 -14 -8 -3 -6 -6 5 -6 10 -1 17 6 17 16 0 13 3 14
12 5 15 -15 -5 -62 -26 -62 -8 0 -29 -14 -47 -31 -33 -31 -34 -31 -60 14 -14
25 -2 56 21 54 22 -1 26 -12 10 -20 -6 -3 -5 -4 2 -3 22 4 14 31 -9 34 -16 2
-26 -4 -35 -22 -7 -17 -19 -26 -33 -26 -13 0 -29 -7 -36 -17 -13 -15 -12 -15
8 -3 17 11 27 11 47 2 34 -15 45 -46 39 -104 l-5 -46 -47 29 c-29 18 -69 32
-109 37 -68 9 -106 35 -117 79 -8 34 20 65 54 61 18 -2 26 -9 26 -23 0 -24
-31 -33 -38 -10 -4 12 -5 11 -3 -2 2 -25 49 -25 54 0 9 47 -65 66 -93 23 -9
-13 -14 -38 -13 -57 2 -26 -1 -34 -16 -37 -26 -5 -46 16 -26 28 9 6 10 10 3
10 -19 0 -26 -19 -13 -35 7 -8 9 -23 6 -32 -5 -16 -4 -16 8 1 17 21 59 24 81
6 14 -12 13 -15 -11 -30 -14 -10 -35 -15 -46 -12 -20 5 -20 6 -3 19 11 7 14
13 8 13 -6 0 -16 -7 -23 -16 -11 -13 -10 -16 7 -20 21 -6 21 -6 -3 -55 -25
-49 -50 -65 -91 -57 -25 5 -31 55 -6 61 15 3 14 4 -2 3 -42 -2 -26 -76 16 -76
14 0 19 -8 20 -27 2 -27 2 -27 6 -3 3 13 12 30 21 36 14 10 19 6 33 -25 38
-86 159 -76 159 12 0 49 -72 77 -101 40 -11 -15 -11 -16 1 -5 31 27 90 1 90
-41 0 -21 -39 -47 -70 -46 l-25 0 23 11 c22 11 30 42 14 52 -5 3 -8 -5 -8 -17
1 -16 -6 -23 -22 -25 -34 -5 -52 15 -52 58 0 45 30 87 76 106 38 16 98 19 89
5 -3 -5 0 -13 6 -17 8 -4 9 -3 5 4 -9 14 13 16 34 2 20 -13 6 -23 -32 -23 -18
0 -25 -2 -15 -4 10 -3 17 -14 17 -28 0 -13 4 -26 9 -29 4 -3 6 6 3 19 -3 19 2
27 22 36 23 11 31 10 54 -8 15 -11 40 -43 56 -72 24 -45 30 -71 37 -160 8
-111 31 -194 74 -267 36 -62 118 -147 177 -186 l53 -33 -45 -8 c-44 -8 -196
-54 -275 -84 -57 -21 -205 -13 -266 14 -60 27 -81 71 -55 116 12 22 13 27 2
18 -11 -10 -17 -8 -28 8 -9 12 -19 17 -27 12 -9 -6 -7 -10 7 -13 15 -4 21 -16
23 -51 l4 -46 -27 26 c-25 23 -26 27 -11 38 13 10 13 14 3 20 -9 5 -11 4 -6
-3 4 -7 2 -12 -3 -12 -6 0 -11 5 -11 11 0 5 -4 8 -9 4 -16 -9 -45 98 -37 137
13 71 89 148 145 148 58 0 96 -67 56 -100 -18 -15 -45 -6 -45 15 0 17 16 20
23 5 3 -6 4 -5 3 2 -4 20 -30 15 -34 -6 -5 -23 16 -38 46 -31 16 4 22 1 22
-10 0 -9 -4 -13 -10 -10 -5 3 -10 1 -10 -5 0 -23 25 -3 26 21 4 86 4 85 18 66
8 -10 14 -35 14 -57 1 -31 -5 -44 -25 -60 -34 -27 -59 -25 -90 6 -18 18 -24
33 -21 54 2 16 1 27 -4 24 -16 -10 -7 -64 15 -90 28 -32 72 -36 112 -10 36 24
48 59 35 106 -18 65 -86 109 -151 96 -28 -5 -29 -4 -23 22 10 41 25 54 56 50
26 -4 27 -4 11 12 -17 15 -19 15 -37 -1 -18 -17 -19 -17 -40 14 -28 41 -76 49
-100 16 -18 -27 -5 -59 25 -59 23 0 36 27 21 42 -8 8 -9 5 -5 -11 4 -17 1 -21
-16 -21 -18 0 -22 5 -19 28 2 21 9 28 31 30 36 4 55 -12 63 -53 7 -40 -6 -67
-57 -119 -23 -22 -43 -55 -50 -80 -22 -81 -20 -80 -57 -47 -35 33 -43 79 -17
101 22 18 50 8 49 -18 0 -16 2 -20 10 -12 7 7 7 16 0 28 -16 24 -42 27 -65 6
-15 -13 -22 -14 -33 -4 -9 6 -21 10 -28 7 -9 -4 -8 -6 3 -6 22 -1 35 -19 42
-59 6 -30 5 -33 -13 -27 -28 9 -87 -12 -105 -38 -36 -51 -5 -122 51 -115 55 6
58 72 3 74 -24 1 -24 1 -1 -3 28 -5 39 -28 22 -48 -17 -20 -43 -19 -63 3 -24
27 -21 59 9 89 22 22 32 25 70 20 63 -7 89 -29 129 -107 36 -72 82 -125 134
-156 32 -19 40 -34 18 -34 -6 0 -34 -12 -61 -26 -37 -20 -58 -25 -84 -20 -66
10 -104 73 -66 110 17 18 24 19 48 10 18 -7 22 -40 6 -47 -6 -3 -5 -4 2 -3 18
4 22 34 8 51 -17 21 -54 19 -73 -3 -21 -23 -22 -61 -2 -89 14 -19 13 -21 -10
-27 -45 -11 -58 -75 -18 -91 15 -5 15 -4 0 13 -22 24 -21 35 2 56 16 14 30 16
76 11 31 -4 54 -10 52 -14 -22 -40 -41 -94 -45 -129 -3 -31 -11 -48 -28 -59
-31 -20 -64 -9 -64 23 0 27 26 34 33 9 4 -11 4 -10 3 2 -1 11 -9 18 -21 18
-14 0 -21 -8 -23 -28 -3 -24 2 -30 27 -40 18 -7 31 -19 31 -29 0 -9 4 -19 8
-22 5 -3 7 7 4 22 -2 18 3 33 16 46 20 17 21 17 38 -9 53 -81 174 -63 174 26
0 49 -60 77 -94 43 -18 -17 -21 -50 -7 -58 5 -4 7 2 5 11 -8 30 19 57 49 49
32 -8 42 -37 25 -73 -11 -23 -21 -29 -54 -31 -76 -6 -123 74 -89 154 17 40 48
80 77 95 14 8 15 5 5 -20 -12 -32 2 -81 23 -81 7 0 4 7 -4 16 -9 8 -16 26 -16
39 0 61 76 91 188 74 35 -5 68 -7 75 -3 7 4 -11 -17 -40 -47 -63 -66 -107
-135 -129 -203 -35 -105 -135 -226 -226 -272 -55 -28 -78 -30 -118 -9 -31 16
-45 44 -35 74 12 37 65 36 65 -1 0 -16 -5 -19 -21 -15 -16 4 -19 3 -11 -5 15
-15 42 -2 42 21 0 11 -9 25 -20 31 -28 15 -59 -4 -67 -41 -5 -26 -10 -30 -29
-26 -13 2 -21 1 -19 -4 3 -4 1 -10 -5 -14 -5 -3 -10 -14 -9 -23 0 -12 3 -11 9
6 12 30 45 28 83 -4 l30 -25 -79 4 c-88 5 -123 19 -171 69 -39 41 -53 76 -53
136 0 85 60 149 116 123 14 -6 28 -20 31 -30 7 -26 43 -34 65 -14 17 15 18 14
18 -25 0 -54 -26 -82 -75 -82 -26 0 -43 7 -61 27 l-26 28 12 -26 c33 -73 147
-61 169 17 16 59 -7 105 -66 130 -69 30 -144 6 -182 -57 l-19 -30 -22 36 c-19
31 -21 40 -11 62 9 19 17 24 36 21 14 -3 22 -1 18 4 -3 6 -18 8 -33 5 -15 -3
-32 -1 -37 4 -6 6 -14 5 -23 -6 -8 -10 -9 -15 -1 -15 6 0 11 5 11 12 0 8 3 9
11 1 5 -5 7 -21 4 -35 -6 -23 -9 -25 -33 -16 -36 13 -80 -4 -92 -37 -16 -42
17 -83 54 -69 34 13 24 65 -13 63 -11 0 -9 -3 7 -9 25 -11 28 -23 8 -39 -22
-18 -46 -2 -46 30 0 42 39 66 80 49 45 -19 70 -56 70 -105 0 -61 25 -136 59
-172 l30 -33 -39 -10 c-21 -6 -46 -7 -56 -4 -55 20 -71 71 -32 98 25 18 17 21
-13 6 -12 -7 -19 -21 -19 -40 0 -17 -4 -30 -8 -30 -5 0 -17 -7 -28 -16 -18
-15 -18 -15 3 -4 17 8 30 6 61 -10 l39 -21 -27 -29 c-32 -34 -39 -63 -28 -107
16 -62 90 -84 126 -38 23 29 19 61 -9 76 -23 12 -54 -2 -63 -28 -6 -17 -5 -17
8 0 21 27 60 19 64 -12 7 -50 -53 -67 -93 -26 -35 34 -33 76 6 120 46 53 95
62 183 36 84 -25 154 -27 222 -6 27 8 52 15 55 15 5 0 -23 -99 -42 -148 -11
-28 -66 -62 -101 -62 -32 0 -68 31 -68 58 0 28 24 55 46 50 23 -4 31 -37 12
-50 -10 -8 -10 -9 2 -5 34 9 17 67 -20 67 -24 0 -50 -32 -50 -63 0 -30 41 -67
76 -67 21 0 23 -2 13 -24 -26 -56 29 -112 69 -72 15 15 15 17 -3 34 -17 15
-18 15 -6 0 25 -33 -22 -55 -49 -23 -14 17 -7 59 13 75 81 66 87 69 87 45 0
-25 29 -77 62 -111 24 -25 29 -39 26 -69 -4 -44 -28 -66 -55 -49 -9 6 -19 16
-21 22 -6 18 28 27 40 11 8 -12 9 -11 5 1 -5 21 -43 25 -50 6 -17 -43 38 -72
74 -40 15 13 22 15 31 6 7 -7 16 -12 22 -12 5 0 3 6 -6 12 -9 7 -18 28 -20 46
-5 32 -3 34 22 28 39 -7 92 10 119 38 61 65 -11 179 -84 132 -34 -23 -34 -70
0 -92 14 -9 28 -14 31 -11 3 3 -4 8 -15 12 -26 8 -38 50 -20 71 19 23 71 14
88 -17 29 -51 -8 -104 -80 -115 -74 -12 -149 77 -149 176 l0 55 19 -32 c30
-49 88 -56 111 -13 20 38 -20 75 -49 45 -14 -13 -13 -17 4 -32 18 -17 18 -17
5 0 -19 25 3 48 25 26 21 -20 9 -48 -23 -56 -20 -5 -30 0 -49 21 -46 53 -23
111 83 211 l64 60 0 -40 c0 -132 80 -279 185 -340 65 -39 91 -99 86 -204 -2
-50 -66 -111 -115 -111 -48 0 -74 15 -87 47 -13 36 6 81 37 89 48 12 72 -40
37 -79 -17 -19 -17 -20 4 -8 51 26 31 101 -27 101 -41 0 -70 -31 -70 -75 0
-73 84 -114 157 -79 87 43 113 147 67 268 -5 13 223 16 244 3 17 -11 15 -28
-3 -21 -8 4 -15 1 -15 -6 0 -6 4 -9 9 -5 5 3 12 1 16 -4 3 -6 12 -8 19 -5 18
7 27 -21 16 -50 -13 -34 -60 -50 -60 -20 0 8 5 12 10 9 17 -10 11 7 -7 22 -17
13 -16 14 6 9 17 -3 21 -2 13 6 -13 13 -40 4 -48 -17 -7 -18 22 -55 43 -55 7
0 13 -8 12 -17 0 -11 -3 -13 -6 -5 -2 6 -9 12 -15 12 -7 0 -7 -5 1 -13 11 -14
54 -17 59 -4 5 16 1 19 -13 7 -13 -10 -15 -9 -15 8 0 11 10 29 23 39 13 10 22
24 19 32 -3 8 0 11 7 7 15 -9 14 -36 -1 -36 -6 0 -9 -2 -6 -5 3 -3 16 -1 29 4
13 5 18 10 12 10 -7 1 -13 7 -13 15 0 8 -6 16 -13 19 -8 3 -24 22 -36 42 l-21
37 32 -7 c106 -22 197 -118 198 -208 1 -111 -121 -181 -184 -106 -30 35 -32
56 -10 87 18 26 65 30 84 7 7 -8 10 -29 8 -46 -5 -29 -4 -30 9 -14 23 33 -14
95 -57 95 -34 0 -70 -39 -70 -76 0 -83 74 -123 163 -89 13 6 17 2 17 -17 0
-56 68 -92 101 -52 16 19 1 48 -27 51 -14 2 -13 0 4 -7 31 -13 25 -44 -9 -48
-55 -6 -78 63 -40 116 10 15 21 37 25 48 4 12 16 24 27 27 15 4 19 2 15 -9 -3
-9 -1 -12 4 -9 6 3 10 16 10 28 0 16 -3 18 -12 9 -18 -18 -38 -15 -38 6 0 14
2 15 10 2 8 -13 10 -12 10 3 0 9 -5 17 -12 17 -6 0 -8 3 -5 7 4 3 3 11 -2 17
-4 6 -11 19 -14 28 -10 29 21 9 47 -29 18 -26 25 -30 29 -18 4 8 2 15 -2 15
-5 0 -11 7 -15 15 -6 17 20 20 43 6 12 -8 12 -12 2 -25 -8 -9 -10 -16 -5 -16
5 0 2 -5 -6 -11 -13 -9 -13 -10 0 -6 8 2 15 8 15 13 0 5 4 14 8 21 4 6 4 18 1
27 -4 10 -1 16 7 16 8 1 25 10 39 21 22 19 25 28 24 89 -1 60 1 67 17 63 10
-3 20 -12 22 -22 4 -14 5 -14 6 2 1 10 -9 21 -24 27 -26 10 -55 4 -55 -12 0
-5 5 -6 10 -3 6 3 10 -1 10 -10 0 -13 -4 -14 -21 -5 -16 9 -26 8 -45 -5 -44
-28 -20 -89 26 -65 23 12 23 31 -1 38 -11 3 -11 2 1 -7 13 -10 13 -12 0 -21
-18 -12 -32 -8 -38 10 -3 8 0 10 8 5 9 -6 10 -1 5 16 -4 13 -4 21 0 17 5 -4
14 -3 21 3 16 13 54 -22 54 -50 0 -25 -37 -69 -47 -56 -14 18 -33 16 -33 -4 0
-49 -79 -28 -153 39 -55 50 -125 89 -161 90 -14 0 -8 8 22 30 28 20 50 48 69
90 27 58 51 79 74 65 6 -4 9 -16 6 -26 -3 -11 -1 -16 5 -13 5 3 7 17 3 31 -4
16 -2 22 5 18 15 -9 12 6 -5 25 -14 16 -13 18 14 30 17 7 43 9 60 5 36 -8 73
-50 69 -79 -2 -17 -10 -21 -40 -20 -44 1 -51 -13 -10 -19 26 -4 26 -4 -4 -6
-21 0 -34 5 -38 15 -8 21 11 54 32 55 11 0 13 2 4 6 -17 7 -52 -25 -52 -47 0
-20 31 -50 52 -50 8 0 27 9 42 21 19 15 26 30 26 55 0 21 4 33 10 29 13 -8 50
13 49 28 0 9 -2 9 -6 0 -7 -20 -61 -15 -91 7 -15 11 -39 21 -54 22 -32 3 -35
10 -12 32 8 9 11 16 5 16 -6 0 -11 8 -11 19 0 10 -8 25 -17 32 -15 11 -16 11
-5 -1 6 -8 12 -29 12 -47 0 -28 -7 -38 -47 -67 l-48 -35 -7 42 c-20 127 0 206
66 265 31 27 45 32 87 32 62 0 102 -20 119 -59 15 -38 3 -78 -33 -105 -22 -16
-30 -18 -52 -8 -14 7 -28 19 -32 28 -10 27 10 68 37 75 23 6 23 7 3 8 -48 2
-75 -57 -46 -98 29 -38 77 -40 113 -6 89 86 -14 217 -145 184 -23 -6 -57 -24
-74 -40 -38 -35 -41 -35 -41 -9 0 27 -22 70 -48 93 -45 41 -129 39 -152 -3
-31 -58 26 -130 68 -88 27 27 8 69 -31 67 -7 0 -2 -4 11 -9 25 -10 30 -47 8
-56 -26 -10 -56 15 -56 46 0 77 125 78 165 0 18 -34 19 -121 2 -168 l-12 -33
-30 31 c-37 38 -121 65 -177 56 -59 -10 -113 -41 -149 -86 -21 -26 -40 -40
-56 -40 -22 0 -33 23 -15 33 4 2 2 3 -5 1 -6 -1 -13 6 -16 17 -3 10 -11 19
-19 18 -10 0 -10 -2 0 -6 6 -2 12 -11 12 -18 0 -7 -6 -15 -12 -18 -7 -2 -6 -3
2 -2 9 1 21 -9 27 -21 9 -20 8 -24 -6 -24 -44 0 -76 51 -49 78 9 9 9 12 0 12
-14 0 -26 -44 -18 -65 5 -14 62 -42 76 -38 3 1 13 4 22 8 14 6 16 -1 16 -47 0
-31 6 -67 16 -85 21 -42 20 -76 -3 -97 -25 -23 -55 -17 -59 12 -4 25 24 32 31
7 4 -11 4 -10 3 2 -2 29 -41 23 -41 -6 0 -36 29 -50 63 -30 20 11 32 13 44 6
21 -14 48 -2 47 20 -1 17 -2 17 -6 0 -6 -21 -39 -23 -47 -1 -13 34 -8 46 16
33 11 -6 39 -11 61 -11 55 1 80 -14 74 -44 -2 -13 0 -21 5 -18 6 4 8 17 5 31
-4 20 -1 24 14 20 11 -3 17 -1 13 4 -3 5 -19 9 -35 9 -29 0 -30 1 -15 22 42
59 -9 140 -63 102 -28 -20 -27 -60 2 -75 22 -12 22 -12 4 9 -22 24 -19 55 5
60 13 2 16 -2 13 -17 -2 -11 1 -23 6 -27 5 -3 9 -2 8 3 -3 19 2 33 12 33 6 0
9 -6 6 -14 -3 -7 -1 -18 5 -24 15 -15 -8 -51 -37 -58 -33 -8 -71 2 -95 26 -26
26 -25 33 5 61 26 25 31 44 16 53 -5 4 -7 -3 -4 -14 4 -15 0 -20 -16 -20 -12
0 -19 -4 -16 -10 3 -6 2 -10 -3 -10 -5 0 -9 20 -10 43 -4 107 119 189 236 158
139 -38 189 -222 89 -329 -66 -72 -220 -103 -328 -67 -72 24 -159 110 -182
180 -58 169 -8 368 126 499 116 113 265 166 469 166 259 -1 442 -82 643 -284
103 -105 117 -126 298 -451 185 -331 312 -722 348 -1074 16 -155 6 -413 -21
-561 -24 -129 -83 -317 -129 -409 l-31 -61 318 0 318 0 1 147 c2 447 163 783
470 984 104 68 176 90 308 96 127 6 195 -5 282 -46 138 -66 222 -194 223 -342
0 -101 -63 -203 -146 -235 -63 -24 -161 -15 -214 20 -134 89 -70 295 85 271
71 -10 139 -85 115 -126 -5 -7 -6 -17 -3 -23 3 -5 2 -6 -3 -3 -6 3 -16 2 -24
-4 -13 -7 -12 -9 3 -9 9 0 17 -7 17 -15 0 -30 -73 -48 -98 -23 -16 16 -15 38
2 38 8 0 18 5 22 11 4 8 -1 9 -17 5 -21 -6 -22 -6 -5 5 14 9 21 8 33 -3 13
-13 12 -17 -2 -32 -9 -9 -12 -16 -6 -16 18 0 30 34 20 53 -21 37 -69 13 -69
-35 0 -15 -4 -28 -9 -28 -5 0 -12 -7 -15 -16 -3 -8 -2 -12 4 -9 6 3 10 1 10
-6 0 -10 3 -10 12 -1 17 17 57 15 64 -3 4 -8 11 -12 16 -9 6 4 6 9 -2 14 -8 5
-5 9 9 13 23 6 28 -12 9 -31 -9 -9 -9 -15 1 -25 10 -10 11 -9 6 6 -8 18 9 24
20 7 10 -16 41 -12 56 8 11 14 11 15 -1 5 -41 -37 -74 10 -46 65 9 17 16 47
16 67 0 39 14 46 30 16 8 -16 6 -22 -7 -30 -10 -6 -13 -11 -7 -11 16 0 33 21
28 34 -3 7 7 18 21 24 17 8 25 19 24 34 -1 21 -2 21 -6 3 -13 -51 -56 -46
-110 14 -70 77 -165 92 -231 36 l-30 -25 -6 31 c-13 66 -7 99 23 130 34 33 56
36 91 12 l25 -17 -19 22 c-11 12 -28 22 -38 22 -35 0 -79 -31 -94 -65 l-14
-34 -26 24 c-91 85 -240 -9 -161 -101 19 -21 29 -26 50 -20 38 9 53 41 32 72
-8 13 -20 24 -25 24 -6 0 -1 -9 10 -20 17 -17 18 -24 10 -41 -18 -33 -41 -35
-67 -5 -29 34 -29 57 0 84 28 26 92 30 125 6 30 -21 62 -86 62 -125 0 -17 -5
-49 -11 -70 l-12 -38 -28 22 c-16 11 -31 29 -35 39 -3 10 -12 18 -20 18 -8 0
-12 5 -9 10 3 6 1 10 -4 10 -11 0 -15 -19 -13 -52 1 -10 -13 -22 -37 -31 -21
-9 -38 -22 -38 -31 0 -9 5 -16 10 -16 5 0 7 7 3 15 -3 8 -1 15 4 15 6 0 10
-11 10 -23 0 -45 54 -73 80 -42 13 16 5 55 -12 55 -7 0 -6 -5 2 -15 13 -15 5
-39 -11 -29 -5 3 -7 9 -4 14 3 5 1 11 -4 15 -6 3 -8 -3 -6 -15 4 -23 -5 -26
-23 -8 -17 17 -15 35 8 58 27 27 63 25 97 -6 16 -15 21 -24 11 -21 -16 6 -35
-20 -23 -31 3 -3 5 0 5 6 0 7 8 12 19 12 13 0 24 -14 35 -45 10 -24 30 -55 45
-68 l28 -24 -43 -11 c-23 -6 -58 -25 -76 -40 -46 -40 -75 -54 -106 -50 -19 2
-28 -2 -30 -16 -2 -10 1 -23 8 -30 6 -6 11 -6 10 -1 -5 23 1 35 17 35 13 0 14
-3 5 -12 -7 -7 -12 -19 -12 -27 0 -11 4 -10 15 5 8 10 15 17 16 14 7 -32 4
-50 -8 -46 -7 3 -13 1 -13 -5 0 -6 -5 -7 -12 -3 -7 4 -8 3 -4 -5 4 -6 16 -9
26 -6 37 12 68 -98 35 -125 -18 -15 -45 -6 -45 15 0 17 16 20 23 5 3 -6 4 -5
3 2 -4 19 -25 21 -32 3 -9 -23 19 -49 44 -41 11 4 25 20 32 36 10 24 15 28 30
20 31 -16 60 -11 85 15 30 29 32 65 7 88 -37 34 -83 15 -81 -33 2 -22 2 -22 6
-3 6 29 28 46 52 38 41 -13 35 -72 -10 -96 -45 -24 -109 32 -109 96 0 32 14
61 48 98 29 30 42 34 42 12 0 -9 7 -18 15 -21 8 -4 12 -10 9 -15 -3 -5 6 -9
19 -9 14 0 28 -7 31 -16 8 -22 8 -26 -3 -19 -5 3 -13 1 -16 -5 -8 -13 40 -9
52 5 4 4 2 5 -4 1 -7 -4 -13 -3 -13 2 0 5 9 12 20 15 12 3 20 14 20 26 0 25
-6 26 -26 7 -11 -11 -11 -16 -1 -19 7 -3 5 -6 -5 -6 -33 -2 -43 57 -12 62 5 1
8 5 7 9 -6 17 35 27 68 18 19 -6 54 -10 78 -10 38 0 42 -2 35 -17 -5 -10 -9
-46 -9 -80 0 -51 4 -66 24 -87 42 -45 116 -43 141 4 25 46 -17 103 -59 81 -26
-15 -32 -36 -15 -58 14 -17 14 -17 5 4 -9 17 -7 25 5 38 20 20 36 15 51 -16
26 -51 -48 -91 -102 -55 -66 43 -42 184 36 216 52 22 107 96 130 174 11 39 22
75 23 79 3 16 95 -91 102 -119 4 -15 2 -41 -4 -57 -11 -29 -11 -29 8 -12 23
21 26 10 10 -47 -20 -71 -96 -108 -148 -72 -44 31 -10 116 35 88 24 -15 26
-29 8 -48 -9 -9 -12 -16 -6 -16 6 0 15 9 21 20 21 40 -27 78 -66 52 -23 -15
-34 -50 -24 -77 11 -29 71 -59 100 -50 16 5 18 2 11 -22 -8 -28 -39 -41 -33
-13 3 12 1 13 -9 2 -20 -19 5 -40 30 -25 15 10 22 9 31 -2 16 -19 34 -19 50 0
10 13 11 18 1 28 -10 9 -11 8 -6 -5 9 -23 -20 -35 -40 -18 -23 19 -18 43 20
84 20 22 38 49 41 62 l6 23 34 -25 c25 -19 34 -34 34 -55 0 -32 -16 -39 -23
-12 -4 17 -5 17 -6 0 0 -10 -5 -15 -11 -12 -5 3 -10 2 -10 -4 0 -5 12 -9 28
-8 23 2 27 7 30 35 2 24 10 36 27 42 13 5 26 15 30 22 6 10 5 11 -6 0 -19 -17
-63 -15 -88 6 -19 14 -57 120 -47 129 2 2 16 -1 31 -7 35 -13 104 -16 181 -6
47 7 67 5 91 -7 57 -30 62 -109 7 -123 -20 -5 -31 -2 -41 12 -11 15 -11 20 3
34 14 13 17 13 31 -5 l15 -20 -4 20 c-4 27 -44 32 -57 7 -14 -26 12 -62 44
-62 33 0 68 46 60 80 -4 14 -13 32 -21 41 -19 22 -18 25 15 38 22 10 27 17 23
36 -2 14 -10 30 -18 36 -18 15 -44 4 -43 -18 1 -17 2 -17 6 0 6 23 37 18 41
-6 5 -27 -17 -47 -52 -47 -42 0 -64 14 -42 27 23 13 56 82 56 119 0 46 35 86
73 82 35 -4 58 -31 40 -49 -6 -6 -20 -8 -30 -5 -17 7 -17 8 1 22 11 8 15 14
10 14 -17 0 -33 -22 -27 -36 7 -19 37 -18 53 1 17 20 -2 65 -27 66 -10 1 -27
2 -38 3 -12 0 -30 -11 -42 -28 -16 -20 -23 -25 -23 -14 0 29 -58 68 -100 68
-77 0 -122 -78 -75 -130 23 -25 76 -26 98 -2 24 26 21 36 -3 12 -11 -11 -29
-20 -40 -20 -25 0 -60 34 -60 59 0 21 23 44 34 33 4 -4 6 0 4 8 -2 9 6 16 22
18 25 4 25 4 6 -17 -11 -12 -25 -21 -33 -21 -7 0 -13 -7 -13 -15 0 -8 5 -15
11 -15 5 0 7 4 4 10 -10 16 6 12 26 -6 10 -9 26 -14 34 -10 18 7 16 28 -3 32
-7 1 -8 0 -2 -3 15 -7 12 -23 -5 -23 -21 0 -30 27 -16 44 38 46 101 6 101 -64
0 -69 -42 -126 -109 -149 -19 -6 -35 -11 -36 -11 -1 0 0 18 2 40 2 24 -1 40
-8 40 -6 0 -9 -7 -5 -15 3 -9 0 -15 -9 -15 -8 0 -15 9 -15 19 0 11 -4 22 -9
25 -4 3 -6 -5 -4 -18 3 -13 -2 -30 -12 -39 -43 -43 -138 5 -203 103 -23 34
-42 70 -42 79 0 27 -55 135 -89 173 l-31 35 52 5 c69 7 117 -7 128 -38 5 -13
12 -24 14 -24 3 0 3 7 0 15 -11 28 16 15 36 -18 39 -64 12 -147 -47 -147 -23
0 -53 24 -53 43 1 43 49 48 62 7 6 -23 7 -23 5 5 -2 26 -6 30 -31 30 -40 0
-56 -27 -36 -63 22 -38 67 -41 108 -7 l31 26 15 -28 c8 -15 15 -22 16 -15 0 6
6 12 14 12 8 0 17 4 20 9 4 5 -3 7 -14 4 -28 -7 -50 14 -50 49 0 16 -6 44 -14
62 -14 34 -14 34 16 40 42 8 45 8 62 -10 9 -8 16 -10 16 -4 0 6 -7 13 -15 16
-11 5 -13 16 -9 43 7 41 -11 65 -43 59 -19 -3 -32 -48 -15 -48 6 0 8 9 5 21
-5 17 -2 20 18 17 34 -4 39 -50 7 -72 -31 -22 -52 -20 -105 11 -40 23 -43 27
-27 36 34 18 95 81 115 119 23 46 54 68 95 68 55 0 88 -67 44 -90 -25 -13 -40
-5 -40 22 0 16 5 19 21 15 16 -4 19 -3 11 5 -15 15 -42 2 -42 -20 0 -11 7 -25
15 -32 12 -10 20 -9 40 4 49 32 18 106 -44 106 -27 0 -29 2 -22 27 4 15 13 29
19 31 7 2 11 0 10 -5 -2 -4 2 -9 7 -10 6 -2 10 3 10 10 0 6 -12 12 -27 12 -14
0 -30 3 -34 7 -4 5 -17 8 -28 7 -18 -1 -17 -2 4 -8 33 -9 35 -57 3 -78 -21
-14 -22 -13 -33 29 -7 23 -25 58 -41 76 -28 32 -39 85 -21 108 4 5 0 2 -9 -7
-11 -12 -20 -14 -30 -8 -12 8 -12 10 0 18 9 6 10 11 2 15 -18 11 -26 -25 -9
-38 8 -6 18 -21 22 -33 6 -20 4 -22 -35 -21 -36 0 -48 -5 -71 -31 -36 -41 -37
-82 -2 -110 15 -12 35 -21 45 -21 28 0 59 36 58 67 0 27 -1 26 -12 -7 -10 -29
-18 -36 -43 -38 -20 -2 -36 3 -45 14 -13 16 -12 17 7 12 19 -5 20 -2 17 34 -7
65 26 84 87 53 38 -19 60 -63 60 -115 0 -46 -16 -84 -31 -75 -5 4 -9 -2 -9
-13 0 -10 -10 -27 -21 -38 -24 -21 -24 -26 -5 41 3 11 1 27 -5 35 -8 12 -9 10
-4 -7 7 -26 3 -28 -25 -11 -16 10 -23 10 -37 -5 -14 -14 -15 -19 -4 -29 10
-11 11 -10 6 4 -10 25 22 35 42 15 13 -13 14 -20 4 -45 -17 -40 -60 -57 -147
-56 -57 1 -82 7 -135 31 -36 17 -85 36 -110 43 -75 19 -75 19 -28 49 105 67
176 180 189 303 14 127 68 195 165 205 55 5 83 -9 101 -53 19 -45 4 -78 -32
-71 -13 2 -21 0 -18 -4 8 -14 -10 -10 -32 5 -26 20 -7 51 30 51 17 -1 22 3 16
9 -6 6 -20 7 -37 0 -39 -13 -44 -57 -10 -79 33 -22 74 -10 97 27 11 18 20 25
24 19 4 -6 17 -11 29 -10 20 1 20 2 -3 8 -28 8 -71 75 -63 100 3 11 2 12 -4 4
-6 -8 -13 -8 -27 2 -18 13 -17 14 7 20 31 8 50 -2 43 -22 -4 -8 -1 -11 5 -8 6
4 8 13 5 21 -3 7 -1 16 4 19 13 8 13 25 -1 25 -5 0 -7 -4 -4 -10 4 -6 -5 -10
-20 -10 -23 0 -24 2 -15 20 15 29 3 59 -26 66 -30 8 -48 -7 -41 -32 4 -16 5
-15 6 4 2 37 61 22 61 -15 0 -29 -48 -63 -87 -63 -22 0 -56 -9 -78 -20 -22
-11 -41 -20 -42 -20 -2 0 -3 17 -3 38 0 50 31 82 61 64 10 -7 19 -8 19 -3 0 5
-10 13 -22 17 -12 3 -29 16 -38 27 -17 20 -40 17 -40 -6 0 -7 4 -6 10 3 7 12
12 12 21 3 10 -10 10 -18 -1 -38 -13 -25 -30 -34 -30 -15 0 5 -13 16 -30 25
-22 11 -30 23 -30 43 0 20 -3 23 -9 13 -5 -8 -7 -20 -4 -27 2 -7 -5 -15 -16
-19 -12 -3 -27 -18 -35 -33 l-14 -26 -15 30 c-36 71 -30 124 15 124 16 0 19
-5 15 -21 -4 -16 -3 -19 5 -11 7 7 6 19 -3 41 -13 30 -34 45 -23 17 3 -7 -2
-16 -10 -19 -20 -8 -20 -3 -1 33 30 57 95 78 143 44 22 -15 31 -64 12 -64 -5
0 -7 -6 -4 -14 7 -17 -35 -29 -53 -14 -18 15 -16 45 5 57 9 6 12 11 7 11 -18
0 -35 -22 -35 -45 0 -12 5 -26 12 -33 40 -40 115 28 87 80 -14 26 3 47 25 29
10 -9 16 -9 21 -1 4 6 4 14 1 17 -3 4 -6 1 -6 -6 0 -7 -4 -10 -10 -6 -5 3 -6
13 -3 23 6 16 6 16 -11 0 -20 -21 -32 -22 -73 -7 -24 8 -30 15 -26 30 4 15 2
18 -13 12 -10 -4 -13 -8 -7 -10 18 -6 3 -33 -18 -33 -26 0 -24 25 3 44 12 9
18 16 12 16 -5 0 -15 -5 -22 -12 -10 -10 -16 -7 -28 10 -8 12 -19 22 -25 22
-5 0 0 -9 11 -20 26 -26 25 -50 -5 -94 -13 -20 -30 -56 -38 -81 l-13 -45 -32
29 c-34 31 -40 58 -19 80 10 11 9 12 -3 5 -8 -5 -26 -9 -40 -9 -15 0 -26 -6
-28 -17 -2 -10 1 -18 7 -18 6 0 8 7 5 15 -4 10 0 15 10 15 9 0 21 -12 26 -26
14 -35 14 -34 -20 -34 -63 0 -98 -87 -45 -112 19 -8 28 -8 40 2 17 14 20 36 6
44 -5 4 -7 -2 -4 -13 6 -23 -10 -34 -37 -26 -14 4 -20 15 -20 35 0 41 37 65
87 55 35 -7 36 -8 16 -16 -32 -12 -29 -16 7 -11 24 3 32 -1 49 -29 31 -51 28
-56 -36 -52 -97 7 -160 -42 -170 -129 -7 -59 17 -105 64 -124 59 -25 119 3
137 63 8 25 -17 93 -34 93 -7 0 -5 -9 4 -22 46 -65 -22 -148 -95 -117 -39 15
-63 67 -53 112 20 94 105 132 199 88 139 -64 166 -239 62 -396 -58 -87 -188
-159 -310 -172 l-60 -6 27 36 c15 20 34 57 42 83 18 59 30 74 61 74 20 0 24
-4 20 -20 -3 -11 -1 -20 4 -20 19 0 8 41 -13 49 -29 11 -8 23 40 23 23 0 40
-6 49 -18 20 -27 16 -62 -7 -69 -27 -8 -43 3 -37 26 3 11 1 17 -4 13 -14 -8
-11 -30 6 -44 26 -21 65 3 65 39 0 16 -5 33 -11 36 -6 5 -5 11 6 18 12 10 3
12 -45 12 -55 0 -60 2 -60 22 0 12 10 29 22 37 12 9 17 16 11 16 -7 0 -15 -5
-18 -10 -5 -8 -11 -7 -21 1 -8 6 -17 9 -21 5 -3 -3 -1 -6 5 -6 7 0 12 -15 12
-34 0 -25 -6 -38 -25 -50 -24 -16 -24 -15 -30 18 -10 50 -39 92 -85 121 -29
19 -40 32 -40 50 0 29 27 45 42 24 8 -11 9 -10 4 4 -3 9 -1 17 4 17 12 0 40
29 40 42 0 6 -9 0 -20 -13 -20 -24 -20 -24 -35 -5 -8 11 -15 15 -15 10 0 -6 5
-15 12 -22 9 -9 8 -12 -4 -12 -9 0 -24 -10 -32 -22 -15 -22 -16 -21 -16 25 0
39 4 49 25 63 21 14 31 15 53 5 26 -11 26 -10 7 4 -13 10 -29 14 -45 10 -33
-8 -39 -15 -54 -58 -12 -35 -13 -36 -39 -22 -15 8 -25 10 -22 5 4 -6 2 -10 -4
-10 -6 0 -15 -9 -21 -21 -13 -24 2 -49 29 -48 10 0 8 4 -8 10 -15 6 -21 14
-17 25 3 9 6 18 6 20 0 6 36 5 55 -2 8 -4 22 -19 31 -35 l15 -29 -36 0 c-24 0
-44 -9 -66 -28 -26 -23 -32 -36 -32 -71 0 -75 70 -115 117 -67 29 28 33 53 13
80 -12 16 -13 14 -9 -18 5 -44 -11 -66 -49 -66 -54 0 -78 74 -39 123 44 56
140 39 187 -32 18 -26 23 -48 23 -94 0 -116 -58 -188 -197 -244 -171 -71 -374
-240 -482 -405 l-57 -86 -13 91 c-49 344 -188 702 -435 1117 -96 162 -131 307
-124 509 8 200 64 337 187 454 67 64 172 119 259 138 80 16 216 7 273 -18 59
-26 123 -84 155 -139 24 -41 24 -44 9 -73 -21 -42 -68 -43 -120 -1 -21 17 -42
30 -47 30 -5 0 -6 5 -2 11 5 8 -1 10 -17 6 -13 -3 -32 -2 -43 2 -18 7 -18 8
-1 25 10 10 28 16 39 14 15 -3 22 1 22 12 0 15 -3 15 -26 3 -24 -12 -25 -12
-31 25 -8 45 -5 52 21 47 12 -2 18 0 14 6 -3 6 -9 8 -12 5 -3 -3 -13 1 -23 10
-16 15 -17 14 -13 -3 4 -15 -1 -18 -33 -18 -29 0 -38 -4 -41 -19 -2 -10 0 -22
6 -28 6 -6 8 0 5 16 -5 22 -2 26 19 26 32 0 48 -18 48 -52 0 -30 -9 -35 -27
-17 -13 13 -33 4 -33 -14 0 -7 4 -6 10 3 6 11 12 12 20 4 19 -19 1 -38 -62
-69 -50 -24 -68 -40 -93 -79 -27 -44 -30 -58 -30 -128 0 -43 -1 -78 -3 -78 -1
0 -20 9 -42 20 -43 22 -58 52 -39 78 11 14 11 15 -1 5 -8 -7 -18 -13 -22 -13
-14 0 -9 55 8 78 20 29 70 30 79 2 9 -27 -3 -43 -28 -36 -15 4 -17 2 -8 -7 14
-14 44 2 49 27 6 29 -18 47 -59 44 -40 -2 -54 -19 -61 -75 -3 -21 -5 -21 -28
-10 -28 14 -43 54 -16 44 9 -4 16 -2 16 4 0 6 -8 9 -17 7 -12 -2 -18 -13 -18
-30 0 -15 -6 -33 -12 -39 -15 -15 -17 -35 -4 -43 5 -4 7 2 4 12 -13 52 64 46
91 -6 l15 -29 -43 -5 c-25 -3 -58 -15 -74 -27 -53 -37 -117 -20 -110 30 2 18
9 24 26 23 16 0 20 2 12 10 -15 15 -44 -5 -48 -33 -2 -13 4 -31 13 -41 19 -21
11 -45 -11 -36 -8 3 -14 1 -14 -4 0 -6 6 -10 14 -10 8 0 16 -7 20 -15 3 -8 13
-14 23 -14 17 1 17 2 1 6 -33 9 -16 53 20 53 4 0 7 -27 7 -60 0 -67 17 -89 71
-90 50 0 84 56 52 88 -31 31 -90 0 -69 -35 9 -16 10 -15 8 7 -1 19 3 26 19 28
11 2 26 -3 32 -11 12 -14 5 -57 -9 -57 -12 0 -11 17 1 25 6 4 8 11 4 16 -8 14
-24 1 -24 -21 0 -43 -51 -36 -70 10 -15 35 -7 73 20 100 17 17 23 18 41 8 18
-11 23 -10 36 10 30 44 117 15 193 -65 60 -62 117 -87 202 -88 38 0 68 0 68 0
0 0 -14 -27 -31 -60 -44 -86 -56 -96 -103 -93 -36 3 -41 6 -44 31 -3 22 1 27
18 27 17 0 21 -4 15 -17 -5 -15 -4 -16 6 -5 17 16 -1 35 -27 30 -29 -5 -26
-60 4 -73 31 -14 28 -23 -13 -31 -74 -14 -139 29 -139 91 0 57 52 86 89 49 25
-26 15 -49 -23 -49 -29 0 -31 -1 -15 -12 13 -11 21 -10 37 1 28 18 32 43 10
67 -54 59 -143 -28 -104 -101 9 -16 6 -21 -15 -26 -32 -8 -44 -49 -21 -72 14
-15 17 -15 32 -1 13 14 13 17 0 28 -10 8 -16 9 -21 1 -4 -6 -3 -9 2 -8 4 2 9
-1 11 -7 1 -5 -4 -10 -10 -10 -23 0 -21 43 2 55 18 9 31 8 70 -9 27 -12 60
-21 74 -21 24 0 25 -2 14 -27 -18 -43 -40 -64 -62 -61 -27 4 -33 35 -9 41 17
4 17 5 0 6 -25 1 -33 -27 -13 -47 13 -13 22 -14 44 -6 24 9 30 8 45 -13 30
-39 92 -26 85 18 -4 34 -49 41 -47 7 1 -17 3 -18 6 -5 7 26 35 22 31 -5 -2
-18 -10 -23 -33 -23 -23 0 -32 6 -39 28 -15 42 3 76 62 113 l52 34 0 -39 c0
-52 21 -118 53 -165 49 -71 24 -166 -43 -166 -52 0 -77 49 -38 74 27 17 47 -8
29 -37 -13 -21 -13 -21 5 -4 22 21 10 50 -24 55 -33 5 -50 -39 -28 -73 24 -37
79 -35 116 5 26 28 28 29 44 11 20 -22 21 -48 1 -54 -11 -4 -10 -4 2 -3 10 0
19 11 21 23 2 11 12 23 23 26 22 6 36 34 22 48 -6 6 -9 2 -9 -13 1 -16 -5 -24
-20 -26 -29 -4 -54 23 -54 57 l0 28 46 -12 c32 -8 61 -8 100 -1 48 8 58 7 82
-11 31 -23 39 -48 22 -68 -19 -22 -50 -19 -50 5 0 22 10 25 28 10 7 -5 6 -3
-2 6 -17 19 -36 11 -36 -16 0 -24 15 -33 45 -26 51 13 38 99 -16 111 l-29 6
22 30 c58 78 -17 197 -99 157 -38 -18 -52 -61 -32 -96 8 -15 24 -29 34 -31 18
-3 17 -1 -4 16 -29 24 -31 71 -5 90 23 17 74 9 92 -14 22 -30 13 -35 -23 -14
-23 14 -37 17 -41 9 -4 -7 -3 -8 4 -4 15 9 15 1 0 -24 -10 -15 -10 -22 -1 -31
9 -9 11 -7 7 8 -7 25 9 37 36 28 32 -10 43 -40 26 -73 -37 -71 -157 -70 -225
2 -24 25 -24 26 -4 43 10 10 12 14 4 8 -10 -7 -16 -6 -18 3 -3 6 -9 10 -14 6
-5 -3 -9 1 -9 10 0 8 -3 22 -7 32 -6 16 -4 16 22 -3 27 -19 31 -19 52 -6 27
18 30 45 6 64 -15 11 -16 11 -5 -1 37 -42 -13 -78 -54 -39 -55 51 -16 155 105
283 69 74 83 95 101 152 11 36 20 84 20 106 l0 39 61 -53 c72 -64 99 -104 99
-150 0 -59 -59 -101 -90 -63 -14 17 -10 47 8 53 6 2 16 -7 21 -20 9 -22 10
-22 10 -2 1 27 -28 39 -47 20 -21 -21 -8 -64 23 -72 30 -7 72 17 84 49 l8 22
8 -24 c12 -38 -4 -107 -35 -149 -46 -65 -128 -79 -179 -31 -42 39 -16 119 39
119 53 0 61 -61 12 -89 -9 -6 -11 -11 -4 -11 6 0 21 9 32 20 55 55 -21 129
-82 80 -80 -62 -17 -167 98 -163 40 1 40 1 36 -30 -2 -18 -11 -38 -20 -44 -9
-7 -11 -13 -6 -13 6 0 15 5 20 10 8 8 20 5 42 -7 29 -17 31 -17 51 1 12 11 21
23 21 29 0 5 -8 -1 -19 -14 -16 -21 -22 -22 -45 -11 -40 18 -36 72 8 123 18
22 39 60 46 84 l13 45 29 -25 c16 -14 34 -25 39 -25 4 0 17 -17 28 -37 22 -41
27 -40 12 1 -9 22 -7 25 19 31 40 9 73 52 65 85 -8 30 -13 36 -41 44 -24 7
-54 -15 -54 -39 0 -22 39 -40 54 -24 8 9 8 10 -1 5 -15 -8 -43 3 -43 19 0 7 6
18 14 24 23 19 56 -4 56 -39 0 -59 -64 -79 -127 -40 -18 11 -33 21 -33 22 0 2
-13 40 -28 84 l-28 82 40 -15 c60 -21 169 -18 246 7 38 12 77 19 95 15 81 -14
139 -88 113 -143 -7 -14 -25 -33 -39 -41 -24 -13 -29 -13 -53 2 -30 20 -33 39
-10 62 20 20 35 15 51 -16 l13 -24 0 23 c0 14 -9 26 -25 34 -21 9 -28 8 -45
-7 -25 -23 -25 -50 0 -75 27 -27 63 -25 97 4 23 20 28 32 28 69 0 37 -6 52
-29 76 -16 17 -28 32 -25 34 37 27 65 38 87 34 l27 -6 -27 11 c-19 8 -28 20
-30 41 -4 37 -30 57 -55 41 -24 -15 -23 -49 1 -49 11 0 20 6 22 13 1 7 0 8 -3
2 -8 -17 -35 -11 -31 8 2 11 12 17 28 17 21 0 26 -5 28 -32 4 -38 -26 -63 -74
-63 -62 0 -67 8 -34 54 29 40 53 126 43 152 -9 24 18 83 47 104 36 25 72 26
95 0 23 -25 13 -70 -16 -70 -24 0 -37 29 -18 42 12 8 11 9 -1 5 -8 -2 -15 -15
-15 -28 0 -20 5 -24 29 -24 37 0 54 25 40 62 -12 35 -54 51 -94 36 -29 -11
-30 -11 -30 21 0 32 -2 33 -37 32 -31 -1 -38 -5 -38 -21 0 -11 8 -21 18 -23
11 -2 17 3 16 15 0 10 -3 13 -6 6 -7 -18 -23 -16 -23 2 0 9 9 15 25 15 34 0
44 -40 19 -85 l-18 -33 -27 38 c-53 72 -152 79 -217 14 -31 -31 -34 -38 -29
-77 7 -52 44 -87 91 -87 34 0 86 32 86 52 0 7 -10 2 -23 -10 -34 -32 -89 -30
-116 4 -12 15 -21 37 -21 50 0 27 27 57 42 48 7 -5 8 -2 3 6 -9 14 11 30 38
30 17 0 17 -2 -4 -31 -15 -21 -27 -29 -40 -26 -11 3 -16 1 -13 -5 3 -5 15 -8
25 -5 12 3 20 -2 24 -14 9 -26 44 -35 63 -15 12 12 13 19 5 27 -8 8 -11 6 -10
-7 2 -25 -32 -25 -47 -1 -14 21 0 46 37 67 24 13 29 13 54 -2 58 -35 79 -121
47 -196 -31 -76 -119 -139 -176 -127 -21 5 -28 4 -24 -4 5 -7 -8 -11 -41 -11
l-47 0 34 30 c42 35 68 38 80 8 6 -17 9 -18 9 -6 1 9 -4 20 -9 23 -6 4 -8 10
-5 14 2 5 -7 6 -20 3 -20 -3 -25 0 -25 15 0 23 -30 53 -52 53 -21 0 -42 -26
-34 -45 6 -16 46 -21 46 -6 0 5 -9 7 -21 4 -17 -5 -20 -2 -17 13 7 39 68 23
68 -18 0 -10 -11 -30 -25 -43 -31 -32 -82 -33 -142 -4 -61 29 -158 131 -189
198 -40 87 -73 129 -133 172 -41 30 -49 39 -33 39 12 0 45 9 74 20 73 28 123
26 153 -5 14 -13 25 -33 25 -43 0 -25 -25 -46 -45 -38 -18 7 -20 33 -2 39 7 2
6 3 -3 3 -20 -2 -19 -36 2 -49 13 -9 22 -7 37 7 23 21 27 47 11 77 -14 26 -2
24 41 -5 38 -26 69 -78 69 -116 0 -33 -26 -75 -55 -88 -56 -26 -113 34 -75 80
15 19 22 21 37 12 9 -6 21 -22 24 -35 7 -23 7 -23 8 4 2 53 -77 60 -94 7 -9
-29 16 -73 47 -84 38 -13 91 13 109 53 17 38 31 39 60 4 12 -16 19 -20 16 -11
-4 11 3 22 19 33 32 20 29 59 -3 63 -13 2 -23 -1 -23 -6 0 -6 9 -8 20 -5 26 7
28 -32 2 -46 -30 -16 -65 9 -80 56 -7 22 -26 54 -41 69 l-29 28 40 18 c47 21
79 23 98 6 12 -11 12 -10 1 5 -7 9 -24 17 -36 17 -21 0 -22 2 -12 29 9 23 7
34 -6 55 -29 43 -94 27 -85 -21 5 -25 52 -25 54 0 2 13 1 14 -3 2 -7 -23 -38
-14 -38 10 0 14 8 21 27 23 22 3 30 -2 40 -22 16 -37 -3 -73 -49 -92 -37 -16
-38 -16 -147 13 -16 4 -14 9 17 42 43 44 74 105 83 161 10 60 42 102 92 120
38 13 46 13 70 0 48 -28 39 -115 -12 -108 -31 4 -34 46 -4 57 13 6 18 10 11
10 -25 2 -43 -12 -43 -34 0 -53 72 -59 91 -8 21 57 -32 109 -101 100 -39 -5
-40 -5 -40 27 0 18 5 37 12 44 14 14 32 16 24 4 -3 -5 1 -9 9 -9 11 0 12 4 4
14 -15 17 -24 16 -43 -3 -9 -8 -21 -12 -27 -8 -8 5 -8 1 0 -14 17 -32 13 -58
-12 -88 l-24 -27 -23 47 c-16 35 -37 57 -75 81 -60 39 -84 81 -69 123 8 22 16
27 44 27 29 0 36 -4 38 -22 3 -18 -2 -23 -18 -23 -18 0 -21 4 -17 21 4 16 3
19 -5 11 -17 -17 -1 -44 24 -40 26 3 35 32 18 53 -30 37 -100 3 -100 -48 0
-15 -3 -16 -21 -6 -17 9 -25 8 -36 -4 -14 -13 -13 -16 8 -27 22 -10 22 -10 6
3 -23 19 -5 32 23 17 18 -9 40 -40 40 -54 0 -3 -11 -6 -25 -6 -65 0 -115 -55
-115 -128 0 -106 159 -119 162 -13 1 18 -3 36 -8 41 -6 6 -9 -2 -6 -24 7 -60
-55 -97 -103 -62 -11 8 -16 19 -12 30 4 10 3 15 -3 11 -6 -4 -10 9 -10 29 0
49 17 45 27 -6 7 -37 33 -67 33 -38 0 6 -5 8 -12 4 -8 -5 -9 0 -6 14 4 12 2
25 -3 28 -5 3 -9 21 -9 39 0 43 26 59 87 52 79 -9 133 -78 133 -171 0 -44 -4
-58 -21 -69 -14 -10 -16 -16 -7 -19 9 -3 8 -12 -7 -34 l-19 -29 -7 34 c-9 44
-2 61 25 62 20 1 20 2 1 6 -11 3 -24 9 -29 14 -6 5 -15 9 -20 9 -6 0 -3 -5 6
-11 29 -16 11 -38 -27 -32 -28 4 -35 1 -45 -18 -10 -21 -10 -22 3 -6 8 9 23
17 34 17 52 0 60 -76 13 -120 -67 -62 -192 -88 -329 -69 -87 12 -175 6 -259
-17 -21 -6 -22 -5 -12 20 12 34 -8 89 -40 106 -21 11 -21 12 -3 25 10 8 27 14
38 15 15 0 17 -2 6 -9 -7 -5 -10 -14 -7 -20 10 -16 25 -4 22 17 -2 9 -13 18
-25 20 -12 2 -19 8 -15 15 3 7 -4 0 -16 -15 -15 -20 -31 -28 -53 -28 -18 0
-51 -9 -74 -19 l-41 -19 -7 45 c-5 35 -3 49 11 64 10 11 12 19 5 19 -6 0 -16
-11 -22 -24 -11 -23 -12 -23 -39 -8 -25 15 -30 15 -54 -2 -18 -11 -26 -24 -24
-38 4 -27 33 -47 48 -32 8 8 4 10 -12 10 -31 -1 -37 38 -8 54 29 15 57 4 75
-30 20 -39 19 -46 -15 -113 l-29 -59 -14 29 c-21 40 -84 97 -136 125 -55 29
-83 65 -84 111 -2 63 58 101 98 61 23 -23 15 -49 -15 -49 -21 0 -25 4 -23 25
2 21 1 22 -7 8 -16 -26 -1 -50 28 -46 37 4 49 30 29 62 -35 52 -112 24 -123
-45 -7 -42 -25 -50 -59 -25 -12 9 -16 19 -11 32 6 15 5 17 -6 6 -10 -10 -10
-17 -1 -31 10 -15 9 -22 -3 -32 -21 -17 -14 -54 11 -55 16 -1 17 0 2 3 -12 3
-17 12 -15 26 4 32 59 36 87 6 27 -29 27 -39 -1 -39 -30 0 -106 -38 -118 -60
-13 -24 -64 -44 -95 -36 -33 8 -53 49 -35 71 25 31 63 9 39 -23 -12 -16 -12
-16 6 0 15 14 16 20 5 32 -17 21 -33 20 -53 -2 -24 -26 -21 -40 13 -72 26 -25
28 -29 14 -41 -13 -10 -17 -10 -24 0 -5 9 -9 10 -14 2 -4 -6 2 -15 16 -20 18
-6 25 -4 33 12 5 11 23 24 38 28 27 7 28 6 22 -21 -20 -90 103 -171 163 -107
31 33 29 80 -4 106 -28 22 -59 27 -68 12 -4 -5 2 -7 12 -4 22 5 72 -33 72 -56
0 -9 -7 -26 -15 -38 -12 -17 -24 -21 -55 -19 -37 3 -70 16 -39 16 8 0 -1 9
-18 20 -39 23 -43 58 -13 107 24 41 71 65 125 65 49 1 113 -21 95 -32 -7 -4 1
-10 19 -13 16 -4 34 -15 40 -25 9 -16 6 -18 -22 -14 -18 2 -38 11 -44 20 -7 9
-13 11 -13 6 0 -6 5 -15 11 -21 8 -8 8 -17 0 -32 -9 -15 -9 -26 -1 -39 10 -15
10 -14 5 4 -7 26 17 54 46 54 54 0 94 -91 87 -200 -4 -53 -11 -76 -41 -125
-73 -121 -115 -310 -104 -472 2 -46 1 -81 -3 -78 -20 12 -191 280 -238 373
-143 277 -170 513 -80 693 93 187 413 400 598 399 118 -2 231 -86 247 -185 7
-45 -20 -118 -54 -145 -49 -38 -129 -17 -153 41 -12 27 -11 36 1 58 26 47 92
40 114 -12 12 -28 14 -29 15 -9 0 30 -43 72 -74 72 -14 0 -37 -11 -52 -24 -41
-34 -39 -86 4 -129 28 -28 39 -32 83 -32 46 0 54 3 90 42 26 29 41 55 45 82 4
23 10 41 14 41 4 0 19 -11 34 -25 20 -19 25 -31 21 -46 -5 -15 -4 -19 4 -15
16 11 13 -16 -5 -42 -19 -28 -59 -26 -59 2 0 25 22 32 28 9 3 -10 4 -7 4 9 -1
22 -4 25 -20 17 -38 -21 -28 -69 14 -69 11 0 19 -6 19 -12 1 -7 10 6 21 30 21
44 28 49 46 31 8 -8 13 -8 17 0 4 6 1 11 -6 11 -20 0 -35 13 -42 38 -7 19 -4
22 22 22 16 0 44 5 61 11 22 8 39 8 55 1 18 -8 22 -7 22 7 0 13 -7 16 -26 13
-20 -4 -23 -2 -12 9 6 7 12 30 12 51 0 25 6 40 18 47 10 6 12 11 4 11 -7 0
-10 5 -7 10 3 6 1 10 -4 10 -6 0 -11 -9 -11 -20 0 -22 -10 -26 -27 -9 -15 15
-54 7 -67 -13 -12 -20 0 -49 25 -56 8 -2 5 3 -6 12 -17 13 -18 17 -5 25 9 7
17 6 21 -1 4 -7 9 -7 13 1 6 10 -6 15 -26 12 -5 0 -8 4 -8 9 0 14 43 13 58 -2
19 -19 14 -63 -11 -86 -28 -27 -37 -28 -38 -4 0 13 -2 13 -9 -5 -7 -18 -13
-20 -42 -14 -52 12 -83 37 -109 87 -46 91 -157 164 -248 164 -35 0 -33 2 49
50 46 28 91 57 100 65 44 40 171 71 194 48 4 -5 12 -9 17 -9 5 -1 13 -2 18 -3
10 -1 9 -20 -2 -38 -5 -7 -4 -13 1 -13 6 0 13 8 17 18 6 15 8 15 26 -7 54 -66
-10 -165 -77 -117 -16 12 -17 17 -6 28 11 11 12 10 9 -2 -2 -8 -2 -12 0 -7 3
4 9 5 13 2 5 -3 12 0 16 6 4 7 3 9 -4 5 -6 -3 -14 -1 -17 5 -4 5 -13 8 -21 5
-8 -3 -11 0 -7 10 8 23 52 17 63 -8 8 -18 9 -18 7 -4 -1 10 -11 25 -22 32 -45
30 -89 -43 -47 -78 26 -23 51 -29 73 -18 16 9 19 7 19 -10 0 -12 -4 -19 -9
-15 -5 3 -13 0 -17 -6 -4 -8 -3 -9 4 -5 7 4 12 1 12 -8 0 -9 4 -16 10 -16 5 0
7 7 4 15 -7 18 0 19 26 3 16 -11 23 -10 37 6 17 18 17 18 -4 5 -20 -12 -25
-11 -40 3 -15 15 -15 22 -3 57 11 33 17 40 34 36 12 -3 31 3 46 16 14 11 19
18 11 14 -7 -4 -17 -2 -22 6 -6 10 0 20 18 35 21 16 25 26 19 47 -5 20 -13 27
-31 27 -14 0 -25 -4 -25 -8 0 -5 10 -8 22 -8 29 1 37 -33 12 -51 -29 -21 -49
-16 -100 27 -26 21 -61 42 -77 46 l-29 6 28 29 c31 33 68 38 83 12 6 -10 11
-13 11 -6 0 6 -4 15 -10 18 -6 4 -5 13 2 25 15 24 -4 52 -23 33 -8 -8 -7 -13
2 -18 8 -5 10 -4 5 3 -4 7 -2 12 4 12 24 0 4 -35 -21 -38 -25 -3 -27 0 -31 38
-2 22 1 48 6 58 8 15 7 15 -7 4 -12 -10 -21 -11 -36 -3 -11 6 -23 11 -28 11
-4 -1 4 -7 19 -16 15 -8 31 -26 34 -39 7 -30 -3 -78 -16 -70 -5 3 -11 -3 -15
-14 -6 -19 -35 -34 -89 -46 -25 -5 -28 -4 -21 12 16 39 17 119 2 156 -43 101
-197 98 -197 -4 0 -30 30 -69 53 -69 22 0 57 30 57 49 0 10 -8 25 -17 32 -16
13 -17 12 -5 -3 28 -35 -10 -79 -49 -58 -27 15 -34 55 -15 85 13 20 25 25 59
25 23 0 49 -6 57 -13 56 -44 67 -131 25 -202 -32 -56 -87 -91 -325 -207 -107
-52 -233 -121 -279 -152 -81 -55 -83 -56 -76 -29 4 15 10 66 14 113 4 47 15
100 25 118 22 42 74 66 111 52 22 -8 26 -15 23 -42 -2 -25 -8 -33 -23 -33 -11
0 -21 8 -23 19 -3 15 0 18 18 13 16 -4 20 -3 12 5 -15 15 -42 2 -42 -21 0 -24
35 -37 55 -21 20 17 19 64 -1 81 -9 7 -34 14 -55 14 -37 0 -37 0 -21 18 30 33
89 57 141 57 42 0 56 -5 85 -30 40 -35 52 -72 36 -111 -26 -61 -120 -61 -120
0 0 37 22 55 57 47 21 -5 24 -4 13 4 -38 25 -90 -5 -90 -52 0 -30 37 -58 75
-58 50 0 85 36 85 87 0 40 -30 100 -55 109 -12 5 -10 10 9 25 28 22 57 24 74
7 9 -9 12 -9 12 0 0 7 -13 15 -29 18 -21 5 -27 11 -24 24 8 31 -15 62 -45 58
-29 -3 -42 -32 -23 -51 8 -8 15 -7 26 6 8 9 10 12 3 7 -18 -15 -28 -12 -28 10
0 14 7 20 24 20 40 0 49 -47 14 -80 -18 -16 -35 -20 -92 -20 -43 -1 -81 -6
-96 -15 -14 -8 -27 -14 -30 -15 -13 -1 3 126 18 143 22 24 67 19 67 -8 0 -13
-6 -20 -17 -19 -10 1 -18 -2 -18 -7 0 -18 39 -8 45 11 8 26 -11 50 -39 50 -28
0 -66 -27 -66 -46 0 -12 -8 -9 -31 10 -34 29 -47 31 -84 14 -48 -22 -44 -93 5
-93 35 0 49 30 25 52 -17 16 -18 17 -6 1 17 -23 7 -48 -18 -48 -41 0 -34 71 8
85 26 8 67 -13 80 -42 21 -45 13 -97 -20 -139 -17 -22 -38 -52 -46 -68 l-15
-29 -23 56 c-31 77 -73 126 -155 182 -39 26 -75 56 -80 66 -14 25 -12 72 3 93
18 25 61 18 65 -11 4 -25 -23 -33 -31 -10 -2 7 -3 6 -3 -3 1 -8 10 -15 21 -15
16 0 20 7 20 30 0 25 -4 30 -28 33 -33 4 -55 -11 -69 -48 -10 -24 -11 -24 -18
-5 -5 11 -9 43 -9 71 -1 57 26 109 69 132 28 14 84 10 106 -9 17 -14 19 -80 2
-97 -17 -17 -53 -15 -69 4 -11 14 -10 21 5 47 l18 32 -21 -19 c-23 -21 -28
-58 -8 -74 30 -24 56 -23 82 2 34 34 33 79 -2 112 -23 21 -35 25 -73 22 -25
-3 -53 -8 -62 -12 -16 -7 -18 -3 -18 32 0 27 5 42 16 46 24 9 28 7 15 -8 -9
-10 -9 -16 -1 -21 6 -4 14 -4 17 -1 4 3 1 6 -6 6 -7 0 -9 5 -6 10 4 6 12 7 18
3 7 -4 6 0 -2 10 -17 22 -27 21 -50 -2z m883 -1256 c49 -45 21 -126 -39 -111
-21 5 -26 12 -23 34 2 22 8 27 30 27 14 -1 24 3 22 7 -10 16 -54 8 -64 -13
-14 -25 10 -69 37 -69 9 0 -10 -16 -43 -36 -32 -19 -75 -51 -95 -70 l-36 -36
-7 65 c-9 81 9 133 50 143 16 4 35 2 48 -6 19 -12 20 -12 7 4 -10 12 -25 17
-48 14 -31 -4 -32 -3 -15 15 53 60 131 74 176 32z m388 -360 c12 -3 24 -9 26
-15 2 -5 10 -10 17 -10 32 0 63 -108 35 -125 -6 -3 -7 -17 -4 -30 7 -29 -5
-54 -17 -34 -4 7 -11 10 -16 6 -4 -5 3 -17 17 -27 14 -10 27 -16 30 -14 2 3
-2 9 -9 13 -8 6 -9 11 -3 15 6 3 13 2 17 -4 7 -12 42 -13 49 -2 2 4 -8 8 -22
7 -25 0 -27 3 -25 40 2 22 4 59 5 83 2 23 4 42 6 42 15 0 42 -24 42 -37 0 -12
3 -13 13 -4 8 6 18 7 22 3 5 -4 5 -1 1 6 -4 7 -11 10 -16 7 -23 -14 -17 17 9
44 l29 32 7 -56 c19 -149 -50 -289 -160 -325 -20 -7 -64 -10 -96 -8 -226 16
-263 347 -46 398 18 4 40 6 49 3 9 -2 27 -6 40 -8z"/>
<path d="M431 4083 c-6 -11 -11 -13 -11 -5 0 7 -4 10 -10 7 -5 -3 -10 -25 -11
-48 l-1 -42 -9 33 c-11 37 -29 43 -29 8 0 -13 -6 -23 -12 -22 -22 2 -161 -157
-187 -212 -23 -49 -25 -51 -43 -35 -17 15 -19 15 -38 -2 -24 -22 -53 -114 -44
-138 3 -10 15 -17 26 -17 15 0 18 -4 13 -17 -4 -10 -9 -82 -12 -160 -5 -128
-4 -143 11 -143 20 0 21 -14 1 -30 -9 -7 -13 -15 -10 -18 3 -3 19 7 35 23 36
35 40 24 5 -17 -25 -30 -32 -48 -17 -48 4 0 13 5 20 12 9 9 12 8 12 -7 0 -17
1 -17 19 -1 19 17 19 17 14 -3 -8 -33 5 -25 26 17 l20 37 -6 -34 c-4 -25 -3
-32 5 -27 7 4 12 16 12 26 0 28 18 34 23 8 3 -16 5 -12 6 12 8 156 20 239 41
280 12 25 24 47 26 49 1 2 19 -6 38 -18 52 -33 61 7 14 69 -17 23 -18 32 -8
74 15 66 37 106 119 214 39 51 71 97 71 102 0 17 -17 11 -33 -12 -15 -21 -15
-20 -2 14 8 21 15 42 15 48 0 20 -19 9 -29 -17 -10 -25 -10 -24 -5 12 6 44 -4
41 -24 -8 l-12 -32 5 43 c5 44 -6 56 -24 25z"/>
<path d="M2024 3295 l5 -50 -15 37 c-18 42 -37 42 -28 0 l5 -27 -20 24 c-20
22 -21 22 -21 3 0 -12 4 -24 10 -27 5 -3 15 -16 21 -28 10 -19 7 -18 -18 6
-16 15 -32 27 -36 27 -12 0 -7 -23 9 -41 15 -16 14 -17 -5 -12 -21 5 -21 2
-21 -123 0 -71 4 -144 9 -162 l10 -33 -31 6 c-55 13 -65 -50 -22 -134 26 -50
27 -50 54 -36 l28 15 83 -146 c55 -97 87 -143 96 -140 10 4 12 -1 7 -19 -7
-29 3 -32 23 -7 12 15 13 13 7 -20 -7 -42 10 -53 22 -15 8 21 8 21 13 -7 8
-40 31 -46 32 -9 0 26 1 26 9 7 17 -43 33 -40 25 5 -8 48 1 54 16 11 6 -16 16
-30 21 -30 10 0 8 12 -7 55 -6 16 -3 15 13 -5 12 -14 24 -21 28 -17 4 4 2 13
-4 19 -7 7 -12 17 -12 22 0 6 5 5 12 -2 7 -7 18 -12 25 -12 7 0 -5 16 -28 37
-22 20 -51 55 -64 77 -20 35 -85 181 -85 192 0 2 14 1 30 -2 26 -6 30 -4 30
16 0 12 -10 30 -22 40 -13 11 -35 29 -50 42 -46 38 -62 124 -55 300 3 85 1
145 -4 142 -5 -3 -9 -14 -9 -24 0 -10 -4 -22 -10 -25 -6 -4 -10 13 -10 44 0
49 -13 74 -23 47 -3 -8 -4 -32 -1 -53 3 -29 2 -33 -5 -18 -5 11 -10 29 -10 41
-1 11 -8 29 -17 40 -14 18 -15 16 -10 -31z"/>
</g>
</svg>
